<mxfile host="Electron" modified="2025-08-13T13:34:55.760Z" agent="Mozilla/5.0 (Windows NT 10.0; Win64; x64) AppleWebKit/537.36 (KHTML, like Gecko) draw.io/23.1.5 Chrome/120.0.6099.109 Electron/28.1.0 Safari/537.36" etag="qbEL777Du96XcC8IlyRJ" version="23.1.5" type="device">
  <diagram name="Page-1" id="oZJsz7KIwQbkHxb1fWEE">
    <mxGraphModel dx="3560" dy="823" grid="0" gridSize="10" guides="1" tooltips="1" connect="1" arrows="1" fold="1" page="1" pageScale="1" pageWidth="2339" pageHeight="3300" math="0" shadow="0">
      <root>
        <mxCell id="0" />
        <mxCell id="1" parent="0" />
        <mxCell id="26zkGwh4PIJCq7smiWJd-1" value="Story Teller" style="rounded=1;whiteSpace=wrap;html=1;" parent="1" vertex="1">
          <mxGeometry x="340" y="397" width="120" height="60" as="geometry" />
        </mxCell>
        <mxCell id="26zkGwh4PIJCq7smiWJd-2" value="GPT-2&lt;br&gt;Text Generation" style="rounded=1;whiteSpace=wrap;html=1;" parent="1" vertex="1">
          <mxGeometry x="340" y="120" width="120" height="60" as="geometry" />
        </mxCell>
        <mxCell id="26zkGwh4PIJCq7smiWJd-3" value="" style="shape=image;verticalLabelPosition=bottom;labelBackgroundColor=default;verticalAlign=top;aspect=fixed;imageAspect=0;image=https://www.akira.ai/hs-fs/hubfs/architecture-diagram-of-data-story-telling.jpg?width=1920&amp;height=1080&amp;name=architecture-diagram-of-data-story-telling.jpg;" parent="1" vertex="1">
          <mxGeometry x="-273" y="627" width="766" height="430.88" as="geometry" />
        </mxCell>
      </root>
    </mxGraphModel>
  </diagram>
</mxfile>
